<svg width="154.490417" height="24.000000" viewBox="0 0 154.49 24" fill="none" xmlns="http://www.w3.org/2000/svg" xmlns:xlink="http://www.w3.org/1999/xlink">
	<desc>
			Created with Pixso.
	</desc>
	<defs/>
	<rect id="Icon" width="35.000000" height="24.000000" fill="#FFFFFF" fill-opacity="0"/>
	<path id="Vector" d="M18.7863 13.134L13.3954 22.3669L8.00449 13.134L18.7863 13.134ZM20.2305 12.3088L6.55444 12.3088L13.3954 24L20.2305 12.3088Z" fill="#263238" fill-opacity="1.000000" fill-rule="nonzero"/>
	<path id="Vector" d="M28.1591 1.65039L33.55 10.8833L22.7681 10.8833L28.1591 1.65039ZM28.1591 0L21.3181 11.6912L35 11.6912L28.1591 0Z" fill="#263238" fill-opacity="1.000000" fill-rule="nonzero"/>
	<path id="Vector" d="M0 0L5.7359 10.3408L12.0038 0.259766L0 0Z" fill="#4CAF4F" fill-opacity="1.000000" fill-rule="nonzero"/>
	<path id="Vector" d="M13.3955 0.905762L19.4121 11.189L7.36728 11.189L13.3955 0.905762Z" fill="#4CAF4F" fill-opacity="1.000000" fill-rule="nonzero"/>
	<path id="Vector" d="M20.9615 13.4341L26.9839 24L14.6526 24L20.7744 13.4341L20.9615 13.4341Z" fill="#4CAF4F" fill-opacity="1.000000" fill-rule="nonzero"/>
	<path id="Vector" d="M22.2653 12.7935L28.1591 23.1978L34.1347 12.7935L22.2653 12.7935Z" fill="#4CAF4F" fill-opacity="1.000000" fill-rule="nonzero"/>
	<path id="Nexcent" d="M60.0327 1.66895L60.0327 22.0325L56.3139 22.0325L47.4545 9.21582L47.3054 9.21582L47.3054 22.0325L43 22.0325L43 1.66895L46.7784 1.66895L55.5682 14.4758L55.7471 14.4758L55.7471 1.66895L60.0327 1.66895ZM147.103 3.10083L151.338 3.10083L151.338 6.75977L154.212 6.75977L154.212 9.94165L151.338 9.94165L151.338 17.3394C151.338 17.7305 151.398 18.0354 151.517 18.2542C151.637 18.4663 151.802 18.6155 152.015 18.7017C152.233 18.7878 152.485 18.8308 152.77 18.8308C152.969 18.8308 153.168 18.8142 153.367 18.7812C153.566 18.7415 153.718 18.7117 153.824 18.6917L154.49 21.8438C154.278 21.9099 153.98 21.9861 153.596 22.0723C153.211 22.165 152.744 22.2214 152.194 22.2415C151.173 22.2812 150.278 22.1453 149.509 21.8337C148.747 21.5222 148.153 21.0383 147.729 20.3821C147.311 19.7358 147.102 18.9226 147.102 17.9424C147.102 17.927 147.103 17.9116 147.103 17.8962L147.103 9.94165L145.015 9.94165L145.015 6.75977L147.103 6.75977L147.103 3.10083ZM70.4705 22.3308C68.8995 22.3308 67.5472 22.0127 66.4137 21.3762C65.2868 20.7334 64.4185 19.8252 63.8086 18.6519Q62.8938 16.8821 62.8938 14.4658Q62.8938 12.1094 63.8086 10.3293Q64.3668 9.24341 65.2028 8.44971Q65.7367 7.94287 66.3839 7.55542Q66.415 7.53687 66.4464 7.51855L66.4481 7.51758Q68.0974 6.56104 70.3015 6.56104C71.3091 6.56104 72.2471 6.72339 73.1154 7.0481C73.9904 7.36646 74.7527 7.84692 75.4023 8.48999C76.0586 9.13306 76.569 9.94165 76.9336 10.916C77.2982 11.8838 77.4805 13.0173 77.4805 14.3167L77.4805 15.48L67.0799 15.48L67.0799 15.49C67.0799 16.2456 67.2191 16.8987 67.4975 17.4487C67.7825 17.999 68.1836 18.4231 68.7006 18.7214C69.2177 19.0198 69.8309 19.1689 70.5401 19.1689C71.0107 19.1689 71.4417 19.1025 71.8328 18.97C72.2238 18.8374 72.5586 18.6387 72.837 18.3735C73.1154 18.1084 73.3275 17.7834 73.4734 17.3992L77.391 17.6575C77.1921 18.5989 76.7844 19.4209 76.168 20.1235Q75.2532 21.1675 73.8015 21.7542C72.8403 22.1387 71.73 22.3308 70.4705 22.3308ZM102.403 22.3308C100.839 22.3308 99.493 21.9995 98.3661 21.3367C97.2458 20.667 96.3841 19.739 95.7809 18.5525C95.1843 17.366 94.886 16.0005 94.886 14.4558C94.886 12.8916 95.1876 11.5193 95.7908 10.3394C96.4007 9.15283 97.2657 8.22803 98.386 7.56519Q100.066 6.56104 102.383 6.56104C103.716 6.56104 104.882 6.80298 105.883 7.28687C106.884 7.77075 107.676 8.4502 108.26 9.3252C108.843 10.2002 109.164 11.2275 109.224 12.4075L105.227 12.4075C105.114 11.6453 104.816 11.0322 104.332 10.5681C103.855 10.0974 103.228 9.86206 102.453 9.86206C101.797 9.86206 101.223 10.041 100.733 10.3992C100.249 10.7505 99.8708 11.2642 99.5991 11.9402C99.3273 12.6165 99.1914 13.4351 99.1914 14.3962C99.1914 15.3706 99.324 16.1992 99.5891 16.8821C99.8609 17.5647 100.242 18.0852 100.733 18.4431C101.223 18.801 101.797 18.98 102.453 18.98C102.937 18.98 103.371 18.8806 103.755 18.6816C104.146 18.4829 104.468 18.1946 104.72 17.8167C104.978 17.4321 105.147 16.9714 105.227 16.4346L109.224 16.4346C109.158 17.6013 108.84 18.6287 108.27 19.5168C107.706 20.3987 106.927 21.0879 105.933 21.5852Q104.441 22.3308 102.403 22.3308ZM118.896 22.3308C117.325 22.3308 115.973 22.0127 114.839 21.3762C113.713 20.7334 112.844 19.8252 112.234 18.6519C111.625 17.4719 111.32 16.0767 111.32 14.4658C111.32 12.8948 111.625 11.5161 112.234 10.3293C112.844 9.14282 113.703 8.21826 114.81 7.55542C115.923 6.89233 117.229 6.56104 118.727 6.56104Q120.239 6.56104 121.541 7.0481C122.416 7.36646 123.179 7.84692 123.828 8.48999C124.484 9.13306 124.995 9.94165 125.359 10.916C125.724 11.8838 125.906 13.0173 125.906 14.3167L125.906 15.48L115.506 15.48L115.506 15.49C115.506 16.2456 115.645 16.8987 115.923 17.4487C116.208 17.999 116.609 18.4231 117.126 18.7214C117.643 19.0198 118.257 19.1689 118.966 19.1689C119.437 19.1689 119.867 19.1025 120.259 18.97C120.65 18.8374 120.984 18.6387 121.263 18.3735C121.541 18.1084 121.753 17.7834 121.899 17.3992L125.817 17.6575C125.618 18.5989 125.21 19.4209 124.594 20.1235Q123.679 21.1675 122.227 21.7542C121.266 22.1387 120.156 22.3308 118.896 22.3308ZM132.906 13.2031L132.906 22.0325L128.67 22.0325L128.67 6.75977L132.707 6.75977L132.707 9.45435L132.886 9.45435C133.224 8.56616 133.791 7.86353 134.587 7.34644C135.382 6.82275 136.347 6.56104 137.48 6.56104C138.541 6.56104 139.465 6.79297 140.254 7.25708C141.043 7.72095 141.656 8.38379 142.094 9.24561Q142.75 10.5283 142.75 12.3081L142.75 22.0325L138.514 22.0325L138.514 13.0637C138.514 13.0513 138.514 13.0386 138.514 13.0261C138.514 12.1096 138.276 11.3928 137.798 10.8762C137.314 10.3459 136.648 10.0808 135.8 10.0808C135.23 10.0808 134.726 10.2036 134.288 10.4487Q134.101 10.5554 133.937 10.6902Q133.535 11.0212 133.274 11.5227C133.036 11.9866 132.913 12.5469 132.906 13.2031ZM83.511 6.75977L86.315 12.0994L89.1885 6.75977L93.5338 6.75977L89.109 14.3962L93.6531 22.0325L89.3278 22.0325L86.315 16.7527L83.3519 22.0325L78.9769 22.0325L83.511 14.3962L79.136 6.75977L83.511 6.75977ZM67.0839 12.855L73.4932 12.855C73.4932 12.2451 73.3607 11.7048 73.0955 11.2344C72.8304 10.7637 72.4625 10.3958 71.9918 10.1306C71.5278 9.85889 70.9875 9.7229 70.3711 9.7229C69.7281 9.7229 69.158 9.87207 68.6609 10.1704Q68.2887 10.3916 67.9979 10.6919L67.9979 10.6919Q67.7138 10.9851 67.5074 11.3535C67.2506 11.8062 67.1094 12.3066 67.0839 12.855ZM115.51 12.855L121.919 12.855C121.919 12.2451 121.786 11.7048 121.521 11.2344C121.256 10.7637 120.888 10.3958 120.418 10.1306Q120.412 10.1272 120.406 10.1238Q120.389 10.1143 120.373 10.1047Q119.692 9.7229 118.797 9.7229C118.154 9.7229 117.584 9.87207 117.087 10.1704C116.596 10.4619 116.212 10.8564 115.933 11.3535C115.676 11.8062 115.535 12.3066 115.51 12.855Z" fill="#263238" fill-opacity="1.000000" fill-rule="evenodd"/>
</svg>
